Simulation
nRows=28
nColumns=15
endheader
time  TH_x TH_y TH_z SC_y  SC_z  SC_x  AC_y  AC_z  AC_x  GH_y  GH_z  GH_yy  EL_x  PS_y
0.0  0.000000  0.000000  0.000000  -28.47370217420274  -1.2723990262000997  13.272193069774364  55.591827243047554  -7.829557687254562  -14.789833388226462  81.32835145986714  0.9535820405979873  -57.52434249024544  25.70158565460173  0.000000
0.015  0.000000  0.000000  0.000000  -28.538001798477723  -1.1458061469951104  13.323080359581203  55.50359309997174  -7.558982079161683  -14.84645919087879  65.55878779053404  0.9967678770439183  -41.865183030536926  25.62809510442839  0.000000
0.03  0.000000  0.000000  0.000000  -28.503532147347094  -1.0381788008886046  13.380437283054953  55.451617101219696  -7.354549001044284  -14.916963051836385  51.797238790762826  1.1491865064764109  -28.20438228899476  25.58120039252789  0.000000
0.045  0.000000  0.000000  0.000000  -28.519681795938492  -0.9543741130947  13.44590062079061  55.4211723949476  -7.217370145787399  -14.982682707854684  41.57385624717539  1.4249510333396171  -18.11145534172872  25.53786949289341  0.000000
0.06  0.000000  0.000000  0.000000  -28.54866273923668  -0.8922349430120866  13.522839951743666  55.38285564628855  -7.127030388735752  -15.046474582494584  35.07560232955002  1.7718710808760263  -11.793763896567022  25.49682731985689  0.000000
0.075  0.000000  0.000000  0.000000  -28.58772147450564  -0.8441056652382339  13.608213210468186  55.35828094423093  -7.079389439859717  -15.108265530945092  31.14462080892553  2.178561260914429  -8.082991417532178  25.44788613244785  0.000000
0.09  0.000000  0.000000  0.000000  -28.631562791825605  -0.8035395055947014  13.702938940756392  55.33841833467798  -7.063097009217092  -15.166759127732412  28.75195616708357  2.62424778734144  -5.951259187178324  25.39893885607433  0.000000
0.105  0.000000  0.000000  0.000000  -28.678209833201862  -0.7660014303269932  13.80671030709767  55.32567262443788  -7.073548462131436  -15.218742403523564  27.261317964376946  3.1029336507275636  -4.758458339388397  25.344368263796273  0.000000
0.12  0.000000  0.000000  0.000000  -28.72632425132024  -0.7291634123801137  13.917890351923981  55.32017185198462  -7.103301385638924  -15.265539006266467  26.336087743407173  3.611060587783259  -4.168074533158809  25.286783565753204  0.000000
0.135  0.000000  0.000000  0.000000  -28.777518165620293  -0.6907015219648799  14.0371882180613  55.320631058949154  -7.148289416693127  -15.304523388986512  25.721642053506564  4.146304703451213  -3.921499198542232  25.22548626405333  0.000000
0.15  0.000000  0.000000  0.000000  -28.830890611761617  -0.6495778485766363  14.16303046755432  55.32802798968094  -7.203873733904525  -15.33705062742865  25.320838268553235  4.708604465680059  -3.9208208862698135  25.160837493287254  0.000000
0.16499999999999998  0.000000  0.000000  0.000000  -28.887769978769004  -0.6042312660317264  14.295433754230917  55.34209826508413  -7.267390862519841  -15.361028400918112  25.038495682348437  5.297274410677391  -4.06700355515106  25.09234545086398  0.000000
0.18  0.000000  0.000000  0.000000  -28.947527679113833  -0.553418923462924  14.43284908324708  55.363834541598216  -7.335032708565343  -15.377084890353501  24.84400938380309  5.9118696929163725  -4.3275228343930925  25.021001421885924  0.000000
0.195  0.000000  0.000000  0.000000  -29.011846415996768  -0.4962829862822385  14.575366858795949  55.39246804075702  -7.405007696694024  -15.383492599528171  24.689055300440373  6.551518882014705  -4.6502001047003585  24.94689118705015  0.000000
0.21  0.000000  0.000000  0.000000  -29.08049170680728  -0.4326935589757024  14.721375828784058  55.428975260703474  -7.474686544740425  -15.380913861939836  24.567270192844795  7.2154014304042  -5.026786361842766  24.870011307876943  0.000000
0.22499999999999998  0.000000  0.000000  0.000000  -29.15487847893374  -0.36236783774011694  14.870834221179875  55.47288009760769  -7.542791974406807  -15.367916316932257  24.45690890239047  7.901859132139446  -5.43179802446341  24.790396121374478  0.000000
0.24  0.000000  0.000000  0.000000  -29.234147625947898  -0.2851614399424834  15.022467789295538  55.52485343781561  -7.607417558863916  -15.344874738335012  24.35979656074953  8.609224668953537  -5.864631636599956  24.708161398143496  0.000000
0.255  0.000000  0.000000  0.000000  -29.319216812025864  -0.2008595130951021  15.17627914733486  55.5844905449383  -7.667557361358922  -15.310682866639201  24.26543226058521  9.335583628828706  -6.311111353771669  24.623599333705606  0.000000
0.27  0.000000  0.000000  0.000000  -29.409015965115724  -0.10923431539044264  15.331033786405886  55.65229568778126  -7.721737171342118  -15.265639762369203  24.1778506459184  10.07915019154937  -6.772935394391511  24.536790411155483  0.000000
0.285  0.000000  0.000000  0.000000  -29.504516172212014  -0.010175544792246012  15.486796899932795  55.72800492951855  -7.7691111507885875  -15.20886881033144  24.09118444507014  10.837894889970192  -7.24091984005963  24.447920509996994  0.000000
0.3  0.000000  0.000000  0.000000  -29.604678156936313  0.0963424439819777  15.64248982770642  55.81184339605062  -7.808458007275314  -15.140690555683179  24.008448754589377  11.609812491012063  -7.715894021085877  24.356997478480103  0.000000
0.315  0.000000  0.000000  0.000000  -29.71036066660491  0.21023500279450308  15.798136267796613  55.90362018835481  -7.838968260104639  -15.06061053761534  23.926225041268506  12.392755581284225  -8.191559450396204  24.26402805341669  0.000000
0.32999999999999996  0.000000  0.000000  0.000000  -29.820382394841346  0.3312889905014668  15.952628694583428  56.00323637503329  -7.859501061009387  -14.969179566584534  23.84664995486461  13.184560423558553  -8.668179325530668  24.16892070798329  0.000000
0.345  0.000000  0.000000  0.000000  -29.935554888290483  0.45910469776493096  16.105836139879063  56.110329395547744  -7.869157460345661  -14.866377715794274  23.767209692616117  13.98304200671821  -9.14066872211567  24.07151218635684  0.000000
0.36  0.000000  0.000000  0.000000  -30.054839317426687  0.5929746506133386  16.256358274315268  56.224421518059415  -7.86670586806064  -14.75320045717272  23.68919934161096  14.786181854659832  -9.608663833148412  23.971523388808276  0.000000
0.375  0.000000  0.000000  0.000000  -30.180088660201307  0.7318805806707002  16.403625527005836  56.34438426685621  -7.850924459948487  -14.62982880900608  23.610492968525005  15.592234067193601  -10.067672571474905  23.86861415144326  0.000000
0.39  0.000000  0.000000  0.000000  -30.31071870746863  0.8743980490217829  16.545173775045736  56.46963693657797  -7.819892266584078  -14.497636636910347  23.531295938686114  16.40017708308518  -10.516227408898915  23.762460532373332  0.000000
0.40499999999999997  0.000000  0.000000  0.000000  -30.44683907423055  1.0194417050688773  16.686077576309145  56.59880064043003  -7.776706586702575  -14.360812332784384  23.44981175294805  17.20788415817438  -10.951102873955273  23.653378840720634  0.000000
